<?xml version="1.0" encoding="utf-8"?>
<!-- Generator: Adobe Illustrator 16.0.4, SVG Export Plug-In . SVG Version: 6.00 Build 0)  -->
<!DOCTYPE svg PUBLIC "-//W3C//DTD SVG 1.1//EN" "http://www.w3.org/Graphics/SVG/1.1/DTD/svg11.dtd">
<svg version="1.1" xmlns="http://www.w3.org/2000/svg" xmlns:xlink="http://www.w3.org/1999/xlink" x="0px" y="0px" width="842px"
	 height="595px" viewBox="0 0 842 595" enable-background="new 0 0 842 595" xml:space="preserve">
<g id="Hintergrund">
</g>
<g id="Hilfslinien_anzeigen">
</g>
<g id="Vordergrund">
	<path d="M202.559,244.865l11.095,32.716c0.758,2.087,6.031,18.208,6.031,18.208h-11l-4.651-15.89l-32.541-0.005l-4.6,15.895H155.89
		c0,0,5.228-16.027,5.986-18.208l11.096-32.716c1.897-6.448,7.776-11,14.794-11C194.782,233.865,200.662,238.417,202.559,244.865z
		 M200.657,270.053l-7.487-22.248c-0.758-2.372-2.845-4.078-5.405-4.078c-2.466,0-4.552,1.706-5.311,4.078l-7.661,22.224
		L200.657,270.053z M715.465,226.055c-8.307,0-15.039,6.733-15.039,15.04c0,8.115,6.427,14.729,14.469,15.029v1.056
		c-8.625-0.301-15.524-7.387-15.524-16.085c0-8.889,7.206-16.095,16.095-16.095c8.891,0,16.096,7.206,16.096,16.095
		c0,8.526-6.629,15.504-15.015,16.06v-1.058c7.802-0.554,13.96-7.059,13.96-15.002C730.506,232.789,723.772,226.055,715.465,226.055
		z M721.467,229.899l2.196,0.799l-2.417,6.642l7.885,3.643l-0.98,2.139l-7.707-3.576l-0.475,1.304
		c-0.237,0.604-0.234,1.243-0.011,1.829l1.539,3.3l-2.104,0.981l-6.07-13.017l2.104-0.981l2.795,5.992L721.467,229.899z
		 M711.822,246.226l-3.219,1.501l1.633,3.502l-2.104,0.982l-4.116-8.826c-1.133-2.429-0.084-5.309,2.345-6.441
		c2.651-1.237,6.569,0.189,7.807,2.841C715.3,242.213,714.252,245.093,711.822,246.226z M706.121,242.402l1.501,3.219l3.219-1.5
		c1.255-0.585,1.807-2.1,1.221-3.354c-0.746-1.599-3.12-2.463-4.72-1.718C706.087,239.634,705.536,241.147,706.121,242.402z
		 M148.925,308.853l7.017,7.019l-22.569,22.568l26.363,26.174l-7.018,7.111l-26.363-26.268l-2.845,2.845
		c-1.991,1.897-3.13,4.363-3.319,7.018v15.458h-9.861v-60.977h9.861v28.07l0.664-0.948L148.925,308.853z M234.87,309.801h9.861
		v51.113h15.078c3.036,0,5.881-1.327,7.872-3.509l1.801-1.802l7.018,7.019l-1.801,1.801c-3.604,3.888-9.009,6.354-14.89,6.354
		H234.87V309.801z M321.803,308.853l7.017,7.019l-22.569,22.568l26.363,26.174l-7.018,7.111l-26.363-26.268l-2.845,2.845
		c-1.991,1.897-3.13,4.363-3.32,7.018v15.458h-9.861v-60.977h9.861v28.07l0.665-0.948L321.803,308.853z M339.323,309.801h23.517
		c10.338,0,18.683,7.775,18.683,17.354c0,4.077-1.897,9.39-4.932,10.717c5.406,2.465,8.535,8.724,8.535,14.794
		c0,10.051-8.06,18.112-18.112,18.112h-27.69V309.801z M367.013,344.414h-17.829v16.5h17.829c4.552,0,8.251-3.699,8.251-8.249
		C375.264,348.112,371.565,344.414,367.013,344.414z M362.84,319.663h-13.655v14.889h14.036c4.646,0,8.439-3.51,8.439-7.397
		C371.66,323.076,367.677,319.663,362.84,319.663z M405.372,344.51h15.078c5.878,0,10.716-4.838,10.716-10.717
		c0-7.491-7.586-15.078-15.079-15.078c-5.879,0-10.715,4.837-10.715,10.716V344.51z M430.027,352.095l12.708,12.613l-7.019,7.017
		l-17.354-17.354h-12.991v16.406h-9.863v-41.347c0-11.38,9.199-20.578,20.578-20.578c12.424,0,24.94,12.519,24.94,24.94
		C441.027,341.759,436.57,348.587,430.027,352.095z M490.397,309.801v9.862h-18.491c-6.449,0-10.811,4.268-10.811,10.716v4.173
		h26.457v9.862h-26.457v2.37c0,9.958,5.215,15.079,15.172,15.079c4.268,0,9.577-0.381,13.94-1.044v9.958
		c-4.457,0.663-9.673,0.947-13.94,0.947c-16.595,0-25.035-8.345-25.035-24.94v-16.405c0-12.518,8.156-20.578,20.674-20.578H490.397z
		 M511.806,320.327l0.759,6.638v43.812h-9.862v-54.148c0-4.363,3.225-7.776,7.681-7.776c2.182,0,4.553,1.043,5.975,2.75
		l22.569,27.501l0.76,1.232v-30.535h9.861v60.977h-9.861v-11.38c0-2.562-0.854-4.931-2.276-6.639l-23.707-28.923L511.806,320.327z
		 M571.904,320.327l0.758,6.638v43.812h-9.861v-54.148c0-4.363,3.225-7.776,7.681-7.776c2.181,0,4.553,1.043,5.975,2.75
		l22.569,27.501l0.76,1.232v-30.535h9.861v60.977h-9.861v-11.38c0-2.562-0.854-4.931-2.276-6.639l-23.708-28.923L571.904,320.327z
		 M660.167,309.801v9.862h-18.491c-6.449,0-10.811,4.268-10.811,10.716v4.173h26.457v9.862h-26.457v2.37
		c0,9.958,5.215,15.079,15.171,15.079c4.269,0,9.578-0.381,13.941-1.044v9.958c-4.457,0.663-9.673,0.947-13.941,0.947
		c-16.594,0-25.034-8.345-25.034-24.94v-16.405c0-12.518,8.155-20.578,20.674-20.578H660.167z M681.386,344.51h15.077
		c5.879,0,10.717-4.838,10.717-10.717c0-7.491-7.586-15.078-15.079-15.078c-5.879,0-10.715,4.837-10.715,10.716V344.51z
		 M706.041,352.095l12.707,12.613l-7.018,7.017l-17.354-17.354h-12.991v16.406h-9.863v-41.347c0-11.38,9.198-20.578,20.578-20.578
		c12.424,0,24.94,12.519,24.94,24.94C717.041,341.759,712.584,348.587,706.041,352.095z M135.27,279.39h-15.078v16.406h-9.863
		v-41.346c0-11.379,9.199-20.578,20.578-20.578c12.424,0,24.94,12.518,24.94,24.94C155.847,270.191,146.649,279.39,135.27,279.39z
		 M120.192,254.449v15.079h15.078c5.879,0,10.716-4.837,10.716-10.717c0-7.491-7.586-15.078-15.079-15.078
		C125.028,243.734,120.192,248.57,120.192,254.449z M260.692,234.819h9.861v41.347c0,11.379-9.199,20.578-20.578,20.578
		c-13.562,0-24.94-11.379-24.94-24.94v-36.984h9.863v36.984c0,8.251,6.827,15.079,15.078,15.079c5.879,0,10.716-4.837,10.716-10.716
		V234.819z M283.208,234.819h9.861v51.114h15.078c3.036,0,5.88-1.327,7.872-3.509l1.801-1.802l7.018,7.018l-1.801,1.802
		c-3.604,3.888-9.009,6.354-14.89,6.354h-24.939V234.819z M207.952,345.044l-7.487-22.248c-0.758-2.372-2.845-4.077-5.404-4.077
		c-2.466,0-4.552,1.705-5.311,4.077l-7.662,22.225L207.952,345.044z M209.853,319.856l11.096,32.716
		c0.758,2.087,6.031,18.208,6.031,18.208h-11l-4.651-15.891l-32.541-0.004l-4.6,15.895h-11.004c0,0,5.228-16.027,5.986-18.208
		l11.096-32.716c1.896-6.448,7.776-11.001,14.794-11.001C202.077,308.855,207.956,313.408,209.853,319.856z"/>
</g>
</svg>
