<?xml version="1.0" encoding="utf-8"?>
<!-- Generator: Adobe Illustrator 16.0.4, SVG Export Plug-In . SVG Version: 6.00 Build 0)  -->
<!DOCTYPE svg PUBLIC "-//W3C//DTD SVG 1.1//EN" "http://www.w3.org/Graphics/SVG/1.1/DTD/svg11.dtd">
<svg version="1.1" xmlns="http://www.w3.org/2000/svg" xmlns:xlink="http://www.w3.org/1999/xlink" x="0px" y="0px" width="842px"
	 height="595px" viewBox="0 0 842 595" enable-background="new 0 0 842 595" xml:space="preserve">
<g id="Hintergrund">
</g>
<g id="Hilfslinien_anzeigen">
</g>
<g id="Vordergrund">
	<path d="M281.79,456.268h5.767v29.893h8.818c1.775,0,3.439-0.775,4.604-2.052l1.054-1.054l4.104,4.104l-1.054,1.054
		c-2.108,2.273-5.269,3.716-8.708,3.716H281.79V456.268z M268.622,456.268h5.768v24.181c0,6.655-5.38,12.034-12.035,12.034
		c-7.931,0-14.586-6.654-14.586-14.585v-21.63h5.768v21.63c0,4.825,3.993,8.818,8.818,8.818c3.438,0,6.267-2.829,6.267-6.268
		V456.268z M186.452,467.748v8.818h8.818c3.438,0,6.268-2.829,6.268-6.268c0-4.381-4.437-8.817-8.819-8.817
		C189.28,461.481,186.452,464.31,186.452,467.748z M195.27,482.334h-8.818v9.595h-5.768v-24.181c0-6.655,5.38-12.035,12.035-12.035
		c7.266,0,14.586,7.321,14.586,14.586C207.305,476.954,201.925,482.334,195.27,482.334z M233.511,476.873l-4.378-13.012
		c-0.444-1.387-1.664-2.384-3.161-2.384c-1.442,0-2.662,0.997-3.105,2.384l-4.48,12.999L233.511,476.873z M234.623,462.143
		l6.489,19.134c0.443,1.221,3.527,10.648,3.527,10.648h-6.433l-2.72-9.293l-19.031-0.003l-2.69,9.296h-6.436
		c0,0,3.058-9.373,3.501-10.648l6.489-19.134c1.109-3.771,4.548-6.434,8.652-6.434C230.075,455.709,233.514,458.372,234.623,462.143
		z M313.072,113.891c-75.958,0-137.532,61.574-137.532,137.531c0,74.207,58.77,134.686,132.304,137.434v9.656
		c-78.865-2.752-141.954-67.553-141.954-147.09c0-81.287,65.895-147.181,147.181-147.181s147.179,65.894,147.179,147.181
		c0,77.967-60.62,141.773-137.301,146.854v-9.673c71.346-5.063,127.654-64.545,127.654-137.182
		C450.604,175.465,389.029,113.891,313.072,113.891z M367.948,149.038l20.085,7.313l-22.104,60.729l72.1,33.308l-8.965,19.563
		l-70.479-32.694l-4.338,11.921c-2.161,5.516-2.138,11.364-0.092,16.721l14.07,30.171l-19.25,8.977L293.472,186.02l19.25-8.976
		l25.551,54.793l0.433-2.455L367.948,149.038z M279.759,298.334l-29.432,13.724l14.933,32.025l-19.251,8.977l-37.635-80.709
		c-10.358-22.212-0.775-48.54,21.437-58.898c24.251-11.309,60.078,1.734,71.386,25.983
		C311.554,261.648,301.971,287.977,279.759,298.334z M227.625,263.375l13.726,29.435l29.432-13.724
		c11.477-5.352,16.516-19.197,11.164-30.673c-6.819-14.624-28.533-22.526-43.158-15.706
		C227.312,238.058,222.273,251.899,227.625,263.375z M342.745,455.713l4.104,4.104l-13.199,13.199l15.418,15.307l-4.104,4.159
		l-15.418-15.361l-1.664,1.664c-1.165,1.108-1.831,2.551-1.941,4.104v9.04h-5.768v-35.661h5.768v16.417l0.389-0.555L342.745,455.713
		z M393.009,456.268h5.767v29.893h8.818c1.775,0,3.439-0.775,4.604-2.052l1.054-1.054l4.104,4.104l-1.053,1.054
		c-2.108,2.273-5.269,3.716-8.708,3.716h-14.585V456.268z M443.851,455.713l4.104,4.104l-13.199,13.199l15.418,15.307l-4.104,4.159
		l-15.418-15.361l-1.664,1.664c-1.164,1.108-1.83,2.551-1.941,4.104v9.04h-5.767v-35.661h5.767v16.417l0.389-0.555L443.851,455.713z
		 M454.097,456.268h13.753c6.047,0,10.927,4.547,10.927,10.148c0,2.386-1.109,5.491-2.884,6.269
		c3.162,1.441,4.991,5.102,4.991,8.651c0,5.879-4.714,10.593-10.593,10.593h-16.194V456.268z M470.291,476.511h-10.427v9.649h10.427
		c2.662,0,4.825-2.162,4.825-4.824S472.953,476.511,470.291,476.511z M467.85,462.035h-7.985v8.708h8.209
		c2.717,0,4.935-2.053,4.935-4.327C473.008,464.031,470.68,462.035,467.85,462.035z M492.725,476.566h8.818
		c3.438,0,6.268-2.829,6.268-6.268c0-4.381-4.438-8.817-8.819-8.817c-3.438,0-6.267,2.828-6.267,6.267V476.566z M507.144,481.003
		l7.433,7.377l-4.105,4.103l-10.148-10.148h-7.598v9.595h-5.769v-24.181c0-6.655,5.38-12.035,12.035-12.035
		c7.266,0,14.586,7.321,14.586,14.586C513.577,474.958,510.971,478.951,507.144,481.003z M542.451,456.268v5.768h-10.815
		c-3.771,0-6.321,2.496-6.321,6.268v2.44h15.473v5.768h-15.473v1.387c0,5.823,3.049,8.818,8.873,8.818
		c2.495,0,5.602-0.223,8.152-0.61v5.823c-2.606,0.389-5.657,0.554-8.152,0.554c-9.706,0-14.642-4.88-14.642-14.585v-9.595
		c0-7.321,4.77-12.035,12.09-12.035H542.451z M554.971,462.424l0.444,3.882v25.623h-5.768v-31.668c0-2.551,1.886-4.548,4.491-4.548
		c1.276,0,2.663,0.61,3.495,1.609l13.198,16.083l0.445,0.721v-17.858h5.767v35.661h-5.767v-6.655c0-1.497-0.5-2.884-1.332-3.883
		l-13.865-16.914L554.971,462.424z M590.119,462.424l0.443,3.882v25.623h-5.768v-31.668c0-2.551,1.886-4.548,4.492-4.548
		c1.275,0,2.662,0.61,3.494,1.609l13.199,16.083l0.444,0.721v-17.858h5.767v35.661h-5.767v-6.655c0-1.497-0.499-2.884-1.331-3.883
		l-13.865-16.914L590.119,462.424z M641.738,456.268v5.768h-10.814c-3.771,0-6.322,2.496-6.322,6.268v2.44h15.473v5.768h-15.473
		v1.387c0,5.823,3.05,8.818,8.873,8.818c2.495,0,5.602-0.223,8.152-0.61v5.823c-2.605,0.389-5.657,0.554-8.152,0.554
		c-9.705,0-14.641-4.88-14.641-14.585v-9.595c0-7.321,4.77-12.035,12.09-12.035H641.738z M654.147,476.566h8.818
		c3.438,0,6.268-2.829,6.268-6.268c0-4.381-4.437-8.817-8.818-8.817c-3.438,0-6.268,2.828-6.268,6.267V476.566z M668.567,481.003
		l7.432,7.377l-4.104,4.103l-10.148-10.148h-7.599v9.595h-5.768v-24.181c0-6.655,5.38-12.035,12.035-12.035
		c7.266,0,14.585,7.321,14.585,14.586C675,474.958,672.395,478.951,668.567,481.003z M377.266,476.88l-4.379-13.012
		c-0.443-1.388-1.664-2.386-3.161-2.386c-1.442,0-2.663,0.998-3.106,2.386l-4.48,12.997L377.266,476.88z M378.378,462.147
		l6.489,19.135c0.444,1.22,3.527,10.648,3.527,10.648h-6.433l-2.72-9.293l-19.031-0.003l-2.69,9.296h-6.436
		c0,0,3.058-9.373,3.501-10.648l6.489-19.135c1.109-3.771,4.548-6.433,8.652-6.433C373.83,455.715,377.268,458.377,378.378,462.147z
		"/>
</g>
</svg>
